<?xml version="1.0" encoding="utf-8"?>
<!-- Generator: Adobe Illustrator 19.0.0, SVG Export Plug-In . SVG Version: 6.00 Build 0)  -->
<svg version="1.1" id="Layer_1" xmlns="http://www.w3.org/2000/svg" xmlns:xlink="http://www.w3.org/1999/xlink" x="0px" y="0px"
	 viewBox="0 0 26 26" style="enable-background:new 0 0 26 26;" xml:space="preserve">
<style type="text/css">
	.st0{fill:#D8D8D8;}
	.st1{fill:#F4F4F4;}
	.st2{fill:#828282;}
	.st3{fill:#E8E8E8;}
</style>
<circle id="XMLID_14_" class="st0" cx="13" cy="13" r="11"/>
<path id="XMLID_39_" class="st1" d="M15.5,15.5c-0.6,0.6-1.5,1-2.5,1s-1.8-0.4-2.5-1c0,0.2-0.1,0.3-0.2,0.4
	c-0.2,0.2-0.6,0.5-1.1,0.9c1,1.1,2.3,1.7,3.8,1.7c1.5,0,2.8-0.7,3.8-1.7c-0.5-0.3-1-0.6-1.2-0.8C15.6,15.8,15.5,15.6,15.5,15.5z"/>
<path id="XMLID_54_" class="st2" d="M13,24c3.7,0,7-1.8,9-4.7c-1-1.6-2.2-1.6-3.3-1.8c-0.6-0.1-1.3-0.5-1.9-0.8
	c-1,1.1-2.3,1.7-3.8,1.7c-1.5,0-2.8-0.6-3.8-1.7c-0.6,0.4-1.3,0.8-1.9,0.9c-1.1,0.3-2.2,0.2-3.3,1.7C6,22.2,9.3,24,13,24z"/>
<path id="XMLID_56_" class="st3" d="M9.2,9.9c0,0-0.9,0.1-0.8,0.9S8.7,12,9,12.1c0.3,0.1,0.7,0.1,0.7,0.1L9.2,9.9z"/>
<path id="XMLID_60_" class="st3" d="M16.8,9.9c0,0,0.9,0.1,0.8,0.9c-0.1,0.8-0.3,1.3-0.6,1.4s-0.7,0.1-0.7,0.1L16.8,9.9z"/>
<path id="XMLID_58_" class="st1" d="M13,5.3c-2.2,0-4,1.8-4,4c0,0.7,0.2,2.4,0.5,3c0.3,0.8,0.7,1.4,1.2,1.9c0.5,0.5,1.4,1.1,2.3,1.1
	s1.8-0.6,2.3-1.1c0.5-0.5,0.9-1,1.2-1.9c0.2-0.6,0.5-2.3,0.5-3C17,7,15.2,5.3,13,5.3z"/>
</svg>
