<?xml version="1.0" encoding="utf-8"?>
<!-- Generator: Adobe Illustrator 19.0.0, SVG Export Plug-In . SVG Version: 6.00 Build 0)  -->
<svg version="1.1" id="Layer_1" xmlns="http://www.w3.org/2000/svg" xmlns:xlink="http://www.w3.org/1999/xlink" x="0px" y="0px"
	 viewBox="0 0 25 25" style="enable-background:new 0 0 25 25;" xml:space="preserve">
<style type="text/css">
	.st0{fill:#181616;}
</style>
<g id="XMLID_1_">
	<path id="XMLID_6_" class="st0" d="M12.5,2C6.7,2,2,6.7,2,12.5c0,4.6,3,8.6,7.2,10c0.6,0.1,0.7-0.2,0.7-0.5v-1.8
		c-2.9,0.6-3.6-1.4-3.6-1.4c-0.5-1.2-1.2-1.5-1.2-1.5c-1-0.6,0.1-0.6,0.1-0.6c1.1,0.1,1.6,1.1,1.6,1.1c0.9,1.6,2.5,1.1,3.1,0.8
		c0.1-0.7,0.4-1.1,0.7-1.4c-2.3-0.3-4.8-1.2-4.8-5.2c0-1.1,0.4-2.1,1.1-2.8C6.8,8.8,6.4,7.8,7,6.3c0,0,0.9-0.3,2.9,1.1
		C10.7,7.1,11.6,7,12.5,7c0.9,0,1.8,0.1,2.7,0.4c2-1.3,2.9-1.1,2.9-1.1c0.6,1.5,0.2,2.5,0.1,2.8c0.7,0.7,1.1,1.7,1.1,2.8
		c0,4.1-2.5,4.9-4.8,5.2c0.4,0.4,0.7,1,0.7,2v2.9c0,0.3,0.2,0.6,0.7,0.5C20,21,23,17.1,23,12.5C23.1,6.7,18.4,2,12.5,2z"/>
</g>
</svg>
