<?xml version="1.0" encoding="utf-8"?>
<!-- Generator: Adobe Illustrator 19.0.0, SVG Export Plug-In . SVG Version: 6.00 Build 0)  -->
<svg version="1.1" id="Layer_1" xmlns="http://www.w3.org/2000/svg" xmlns:xlink="http://www.w3.org/1999/xlink" x="0px" y="0px"
	 viewBox="0 0 25 25" style="enable-background:new 0 0 25 25;" xml:space="preserve">
<style type="text/css">
	.st0{clip-path:url(#XMLID_19_);fill:#FBBC05;}
	.st1{clip-path:url(#XMLID_20_);fill:#EA4335;}
	.st2{clip-path:url(#XMLID_21_);fill:#34A853;}
	.st3{clip-path:url(#XMLID_22_);fill:#4285F4;}
</style>
<g id="XMLID_1_">
	<g id="XMLID_15_">
		<defs>
			<path id="XMLID_17_" d="M22.5,10.6h-9.8v4.1h5.6c-0.5,2.6-2.7,4.1-5.6,4.1c-3.4,0-6.2-2.8-6.2-6.2s2.8-6.2,6.2-6.2
				c1.5,0,2.8,0.5,3.9,1.4l3.1-3.1C17.8,3,15.4,2,12.7,2C6.9,2,2.2,6.7,2.2,12.5S6.9,23,12.7,23c5.2,0,10-3.8,10-10.5
				C22.8,11.9,22.7,11.2,22.5,10.6z"/>
		</defs>
		<clipPath id="XMLID_19_">
			<use xlink:href="#XMLID_17_"  style="overflow:visible;"/>
		</clipPath>
		<path id="XMLID_16_" class="st0" d="M1.3,18.7V6.3l8.1,6.2L1.3,18.7z"/>
	</g>
	<g id="XMLID_12_">
		<defs>
			<path id="XMLID_14_" d="M22.5,10.6h-9.8v4.1h5.6c-0.5,2.6-2.7,4.1-5.6,4.1c-3.4,0-6.2-2.8-6.2-6.2s2.8-6.2,6.2-6.2
				c1.5,0,2.8,0.5,3.9,1.4l3.1-3.1C17.8,3,15.4,2,12.7,2C6.9,2,2.2,6.7,2.2,12.5S6.9,23,12.7,23c5.2,0,10-3.8,10-10.5
				C22.8,11.9,22.7,11.2,22.5,10.6z"/>
		</defs>
		<clipPath id="XMLID_20_">
			<use xlink:href="#XMLID_14_"  style="overflow:visible;"/>
		</clipPath>
		<path id="XMLID_13_" class="st1" d="M1.3,6.3l8.1,6.2l3.3-2.9l11.5-1.9V1H1.3V6.3z"/>
	</g>
	<g id="XMLID_9_">
		<defs>
			<path id="XMLID_11_" d="M22.5,10.6h-9.8v4.1h5.6c-0.5,2.6-2.7,4.1-5.6,4.1c-3.4,0-6.2-2.8-6.2-6.2s2.8-6.2,6.2-6.2
				c1.5,0,2.8,0.5,3.9,1.4l3.1-3.1C17.8,3,15.4,2,12.7,2C6.9,2,2.2,6.7,2.2,12.5S6.9,23,12.7,23c5.2,0,10-3.8,10-10.5
				C22.8,11.9,22.7,11.2,22.5,10.6z"/>
		</defs>
		<clipPath id="XMLID_21_">
			<use xlink:href="#XMLID_11_"  style="overflow:visible;"/>
		</clipPath>
		<path id="XMLID_10_" class="st2" d="M1.3,18.7l14.3-11l3.8,0.5L24.2,1V24H1.3V18.7z"/>
	</g>
	<g id="XMLID_6_">
		<defs>
			<path id="XMLID_8_" d="M22.5,10.6h-9.8v4.1h5.6c-0.5,2.6-2.7,4.1-5.6,4.1c-3.4,0-6.2-2.8-6.2-6.2s2.8-6.2,6.2-6.2
				c1.5,0,2.8,0.5,3.9,1.4l3.1-3.1C17.8,3,15.4,2,12.7,2C6.9,2,2.2,6.7,2.2,12.5S6.9,23,12.7,23c5.2,0,10-3.8,10-10.5
				C22.8,11.9,22.7,11.2,22.5,10.6z"/>
		</defs>
		<clipPath id="XMLID_22_">
			<use xlink:href="#XMLID_8_"  style="overflow:visible;"/>
		</clipPath>
		<path id="XMLID_7_" class="st3" d="M24.2,24L9.4,12.5l-1.9-1.4l16.7-4.8V24z"/>
	</g>
</g>
</svg>
